# xmcd
#
# Track frame offsets: 
#        150
#        15918
#        35511
#        52853
#        69276
#        88644
#        102009
#        118183
#        132354
#        145098
#
# Disc length: 2153 seconds
#
# Revision: 0
# Processed by: cddbd v1.5.2PL0 Copyright (c) Steve Scherf et al.
# Submitted via: ExactAudioCopy v0.99pb5
#
DISCID=7808670a
DTITLE=Kenny Rogers - 10 Great Songs
DYEAR=2009
DGENRE=Country
TTITLE0=The Gambler
TTITLE1=Through The Years
TTITLE2=Lady
TTITLE3=Lucille
TTITLE4=Coward Of The County
TTITLE5=Every Time Two Fools Collide
TTITLE6=You Decorated My Life
TTITLE7=Daytime Friends
TTITLE8=Love Or Something Like It
TTITLE9=Don't Fall In Love With A Dreamer
EXTD=
EXTT0=
EXTT1=
EXTT2=
EXTT3=
EXTT4=
EXTT5=
EXTT6=
EXTT7=
EXTT8=
EXTT9=
PLAYORDER=
